# xmcd CD database file generated by Grip 3.3.1
# 
# Track frame offsets:
#       150
#       32775
#       49871
#       73264
#       121117
#       139125
#       169932
#       201909
#       213274
#       228566
# 
# Disc length: 3269 seconds
# 
# Revision: 1
# Processed by: cddbd v1.5.2PL0 Copyright (c) Steve Scherf et al.
# Submitted via: Grip 3.3.1
# 
DISCID=960cc30a
DTITLE=Christian Ferras (violin), Pierre Barbizet (piano) - Schumann - V
DTITLE=iolin Sonates No.1 and 2, 3 Romances for violin and Piano
DYEAR=2012
DGENRE=Classical
TTITLE0=I. Mit leidenschaftliches Ausdruck - Violin Sonata No.1 in A mino
TTITLE0=r, Op.105
TTITLE1=II. Allegretto - Violin Sonata No.1 in A minor, Op.105
TTITLE2=III. Lebhaft - Violin Sonata No.1 in A minor, Op.105
TTITLE3=I. Ziemlich langsam - Violin Sonata No.2 in D minor, Op.121
TTITLE4=II. Sehr lebhaft - Violin Sonata No.2 in D minor, Op.121
TTITLE5=III. Leise, einfach - Violin Sonata No.2 in D minor, Op.121
TTITLE6=IV. Bewegt - Violin Sonata No.2 in D minor, Op.121
TTITLE7=1. Nicht schnell (Moderato) - 3 Romances for violin and Piano, Op
TTITLE7=94
TTITLE8=2. Einfach, innig (Semplice, affettuoso) - 3 Romances for violin 
TTITLE8=and Piano, Op.94
TTITLE9=3. Nicht schnell (Moderato) - 3 Romances for violin and Piano, Op
TTITLE9=94
EXTD=
EXTT0=
EXTT1=
EXTT2=
EXTT3=
EXTT4=
EXTT5=
EXTT6=
EXTT7=
EXTT8=
EXTT9=
PLAYORDER=
